<svg width="633" height="319" viewBox="0 0 633 319" fill="none" xmlns="http://www.w3.org/2000/svg">
<g clip-path="url(#clip0)">
<path d="M91.482 85.383L36.3907 74.6603L25.6821 129.824L80.7734 140.546L91.482 85.383Z" fill="#FEBA91"/>
<path d="M41.9614 92.7433L80.9973 101.159" stroke="#2E186A" stroke-width="6" stroke-linecap="round" stroke-linejoin="round"/>
<path d="M40.5627 100.062L78.2343 108.186" stroke="#2E186A" stroke-width="6" stroke-linecap="round" stroke-linejoin="round"/>
<path d="M38.1206 107.565L66.9859 113.788" stroke="#2E186A" stroke-width="6" stroke-linecap="round" stroke-linejoin="round"/>
<path d="M51.4264 101.165L0.00189209 123.672L22.4794 175.164L73.904 152.657L51.4264 101.165Z" fill="#FEBA91"/>
<path d="M19.7339 137.158L43.9929 127.167" stroke="#2E186A" stroke-width="6" stroke-linecap="round" stroke-linejoin="round"/>
<path d="M24.6396 145.941L35.9992 141.265" stroke="#2E186A" stroke-width="6" stroke-linecap="round" stroke-linejoin="round"/>
<path d="M29.8745 107.805L29.28 110.867L50.7632 102.859L67.4862 137.959L70.5485 138.558L52.0891 99.4756L29.8745 107.805Z" fill="white"/>
<path d="M357.328 0H632.991V157.993C632.991 165.217 630.125 172.146 625.023 177.255C619.921 182.364 613.001 185.234 605.786 185.234H384.534C377.318 185.234 370.398 182.364 365.296 177.255C360.194 172.146 357.328 165.217 357.328 157.993V0Z" fill="#5D21D1"/>
<path d="M508.788 118.961C508.788 118.961 498.524 121.608 496.257 112.083C496.257 112.083 504.212 108.585 508.788 118.961Z" fill="white"/>
<path d="M485.141 94.3665C486.308 95.0654 487.554 95.6218 488.853 96.0238C488.208 96.9096 487.748 97.9175 487.502 98.9863C487.257 100.055 487.231 101.163 487.425 102.242C487.599 103.418 488.042 104.539 488.72 105.515C489.399 106.491 490.293 107.297 491.334 107.869C490.834 110.996 489.935 115.501 488.888 117.09C488.374 117.865 488.661 119.034 489.529 119.694C490.397 120.353 491.514 120.259 492.027 119.484C493.541 117.184 494.567 111.501 495.021 108.486C495.089 108.486 495.153 108.486 495.218 108.46C498.823 107.767 501.171 103.865 500.47 99.7411C500.251 98.4728 499.737 97.2741 498.968 96.2422C503.039 95.2285 506.645 92.8572 509.19 89.5186C514.725 82.1226 512.933 72.3069 505.183 67.5918C497.433 62.8767 486.668 65.048 481.133 72.4397C475.599 79.8314 477.395 89.6471 485.141 94.3665Z" fill="white"/>
<path d="M446.332 166.468L407.086 158.828L395.299 134.824L401.95 100.58L457.041 111.304L446.332 166.468Z" fill="#FEBA91"/>
<path d="M410.529 116.015L442.722 121.741" stroke="white" stroke-width="6" stroke-linecap="round" stroke-linejoin="round"/>
<path d="M409.524 121.681L441.717 127.406" stroke="white" stroke-width="6" stroke-linecap="round" stroke-linejoin="round"/>
<path d="M408.604 127.625L427.752 131.03" stroke="white" stroke-width="6" stroke-linecap="round" stroke-linejoin="round"/>
<path d="M408.074 157.933L412.582 137.637L396.715 134.417" stroke="white" stroke-width="6" stroke-linecap="round" stroke-linejoin="round"/>
<path d="M357.328 29.978H347.547C347.547 29.978 336.516 140.742 262.606 127.12C188.696 113.497 33.5956 88.0754 28.1553 193.405C22.715 298.735 106.142 241.537 106.142 241.537" stroke="#5D21D1" stroke-width="6" stroke-linecap="round" stroke-linejoin="round"/>
<path d="M355.399 26.2565H348.299C347.234 26.2565 346.37 27.1212 346.37 28.1879V31.8923C346.37 32.959 347.234 33.8238 348.299 33.8238H355.399C356.464 33.8238 357.328 32.959 357.328 31.8923V28.1879C357.328 27.1212 356.464 26.2565 355.399 26.2565Z" fill="#FE7624"/>
<path d="M112.951 240.252C116.582 237.254 117.813 218.514 102.54 226.762C87.2673 235.01 98.55 246.954 106.043 243.867C113.536 240.779 112.951 240.252 112.951 240.252Z" fill="#FE7624"/>
<path d="M156.481 114.319C156.481 114.319 -24.4343 196.116 62.6149 300.324" stroke="#5D21D1" stroke-width="7.33" stroke-linecap="round" stroke-linejoin="round"/>
<path d="M64.347 303.484C68.3032 306.054 86.5188 301.66 74.107 289.515C61.6953 277.369 53.6674 291.711 58.8425 297.955C64.0177 304.199 64.347 303.484 64.347 303.484Z" fill="#FE7624"/>
<path d="M173.097 109.625H155.866C152.736 109.625 150.199 112.166 150.199 115.3C150.199 118.434 152.736 120.974 155.866 120.974H173.097C176.227 120.974 178.764 118.434 178.764 115.3C178.764 112.166 176.227 109.625 173.097 109.625Z" fill="#FE7624"/>
<path d="M584.82 207.938L567.477 202.502C558.645 199.734 549.244 204.659 546.479 213.503L529.336 268.347C526.571 277.191 531.49 286.604 540.322 289.372L557.666 294.808C566.498 297.576 575.899 292.65 578.663 283.807L595.807 228.963C598.571 220.119 593.652 210.706 584.82 207.938Z" fill="white" stroke="#2E186A" stroke-width="6" stroke-linecap="round" stroke-linejoin="round"/>
<path d="M552.234 262.479C552.234 262.479 556.083 262.393 556.083 265.948C556.096 265.948 553.012 266.526 552.234 262.479Z" fill="#2E186A"/>
<path d="M558.572 273.129C558.218 272.786 557.823 272.487 557.396 272.239C557.697 271.978 557.942 271.66 558.117 271.302C558.292 270.944 558.393 270.555 558.414 270.157C558.449 269.727 558.384 269.295 558.225 268.894C558.067 268.493 557.818 268.134 557.499 267.845C557.926 266.778 558.619 265.275 559.124 264.787C559.244 264.653 559.31 264.48 559.31 264.301C559.31 264.122 559.244 263.948 559.124 263.815C559.076 263.744 559.013 263.684 558.941 263.638C558.868 263.593 558.787 263.563 558.702 263.55C558.617 263.538 558.531 263.543 558.448 263.566C558.365 263.589 558.288 263.628 558.222 263.682C557.499 264.367 556.665 266.294 556.254 267.322H556.181C554.851 267.271 553.701 268.457 553.615 269.973C553.589 270.44 553.673 270.906 553.859 271.335C552.336 271.356 550.865 271.895 549.689 272.864C547.123 275.005 546.947 278.641 549.3 280.949C550.499 282.067 552.063 282.711 553.701 282.761C555.338 282.811 556.939 282.265 558.204 281.223C560.741 279.057 560.916 275.438 558.572 273.129Z" fill="#2E186A"/>
<path d="M305.023 168.816L191.83 187.133L213.418 320.88L326.61 302.563L305.023 168.816Z" fill="#2E186A"/>
<path d="M262.034 156.14L164.133 194.636L209.503 310.32L307.404 271.824L262.034 156.14Z" fill="white" stroke="#2E186A" stroke-width="6" stroke-linecap="round" stroke-linejoin="round"/>
<path d="M177.469 210.231L159.368 217.349" stroke="#2E186A" stroke-width="9.08" stroke-linecap="round" stroke-linejoin="round"/>
<path d="M184.996 229.43L166.9 236.548" stroke="#2E186A" stroke-width="9.08" stroke-linecap="round" stroke-linejoin="round"/>
<path d="M192.528 248.633L174.428 255.746" stroke="#2E186A" stroke-width="9.08" stroke-linecap="round" stroke-linejoin="round"/>
<path d="M200.055 267.832L181.959 274.949" stroke="#2E186A" stroke-width="9.08" stroke-linecap="round" stroke-linejoin="round"/>
<path d="M207.587 287.031L189.491 294.148" stroke="#2E186A" stroke-width="9.08" stroke-linecap="round" stroke-linejoin="round"/>
<path d="M197.493 218.587L232.162 204.955" stroke="#FE7624" stroke-width="6" stroke-linecap="round" stroke-linejoin="round"/>
<path d="M213.767 219.212L248.436 205.58" stroke="#FE7624" stroke-width="6" stroke-linecap="round" stroke-linejoin="round"/>
<path d="M200.021 224.621L207.078 221.846" stroke="#FE7624" stroke-width="6" stroke-linecap="round" stroke-linejoin="round"/>
<path d="M208.549 246.363L220.572 241.635" stroke="#FE7624" stroke-width="6" stroke-linecap="round" stroke-linejoin="round"/>
<path d="M205.829 239.43L227.257 231.006" stroke="#FE7624" stroke-width="6" stroke-linecap="round" stroke-linejoin="round"/>
<path d="M202.78 231.644L214.798 226.92" stroke="#FE7624" stroke-width="6" stroke-linecap="round" stroke-linejoin="round"/>
<path d="M220.11 224.83L240.101 216.972" stroke="#FE7624" stroke-width="6" stroke-linecap="round" stroke-linejoin="round"/>
<path d="M265.869 194.442L263.645 202.63L263.85 280.217L268.341 280.204L268.136 202.621L265.869 194.442Z" fill="#FE7624"/>
<path d="M263.842 277.511L271.964 277.489L271.574 258.706" stroke="#5D21D1" stroke-width="6.05" stroke-linecap="round" stroke-linejoin="round"/>
<path d="M267.31 206.793L264.846 206.779C263.793 206.773 262.934 207.623 262.928 208.678L262.82 227.469C262.814 228.524 263.663 229.384 264.716 229.39L267.18 229.404C268.233 229.411 269.092 228.56 269.098 227.505L269.206 208.714C269.212 207.659 268.363 206.799 267.31 206.793Z" fill="#5D21D1"/>
<path d="M266.207 250.894L265.933 260.924" stroke="#5D21D1" stroke-width="6.05" stroke-linecap="round" stroke-linejoin="round"/>
<path d="M243.693 176.6L242.577 185.016L253.12 261.879L257.568 261.267L247.029 184.403L243.693 176.6Z" fill="#FE7624"/>
<path d="M199.886 59.6738L230.199 55.6347L232.309 71.5073L201.996 75.5464C199.986 75.8142 197.953 75.2717 196.343 74.0384C194.733 72.805 193.679 70.9818 193.411 68.9699L193.32 68.2822C193.053 66.2702 193.594 64.2343 194.826 62.6223C196.058 61.0103 197.879 59.9543 199.888 59.6866L199.886 59.6738Z" fill="white" stroke="#2E186A" stroke-width="6" stroke-linecap="round" stroke-linejoin="round"/>
<path d="M264.359 96.953C286.457 96.953 304.37 79.016 304.37 56.8896C304.37 34.7632 286.457 16.8262 264.359 16.8262C242.262 16.8262 224.348 34.7632 224.348 56.8896C224.348 79.016 242.262 96.953 264.359 96.953Z" fill="white" stroke="#2E186A" stroke-width="6" stroke-linecap="round" stroke-linejoin="round"/>
<path d="M264.36 85.2188C279.985 85.2188 292.652 72.5354 292.652 56.8896C292.652 41.2438 279.985 28.5604 264.36 28.5604C248.734 28.5604 236.067 41.2438 236.067 56.8896C236.067 72.5354 248.734 85.2188 264.36 85.2188Z" fill="#FE7624"/>
<path d="M483.058 256.7L482.968 213.511C482.96 209.833 479.976 206.857 476.303 206.865L366.642 207.095C362.969 207.103 359.998 210.091 360.005 213.768L360.096 256.958C360.103 260.636 363.087 263.611 366.76 263.604L476.421 263.374C480.094 263.366 483.066 260.378 483.058 256.7Z" fill="#FE7624"/>
<path d="M478.64 254.179V244.685H476.625C476.305 244.68 476 244.549 475.776 244.319C475.552 244.089 475.429 243.78 475.432 243.46L475.398 225.901C475.395 225.743 475.423 225.585 475.481 225.437C475.539 225.29 475.626 225.155 475.736 225.041C475.846 224.927 475.977 224.835 476.123 224.772C476.268 224.709 476.424 224.675 476.583 224.672H478.593V215.178C478.61 213.874 478.109 212.618 477.202 211.684C476.294 210.75 475.053 210.215 473.751 210.197L368.991 210.411C368.344 210.418 367.704 210.553 367.109 210.808C366.513 211.064 365.975 211.435 365.523 211.9C365.072 212.365 364.717 212.915 364.479 213.518C364.241 214.121 364.125 214.765 364.137 215.413L364.214 254.415C364.205 255.06 364.323 255.701 364.561 256.301C364.8 256.9 365.154 257.447 365.604 257.91C366.053 258.372 366.589 258.741 367.182 258.996C367.774 259.251 368.411 259.387 369.055 259.395L473.815 259.185C475.118 259.162 476.358 258.621 477.263 257.682C478.167 256.743 478.663 255.483 478.64 254.179V254.179Z" stroke="white" stroke-width="6" stroke-linecap="round" stroke-linejoin="round"/>
</g>
<defs>
<clipPath id="clip0">
<rect width="633" height="319" fill="white"/>
</clipPath>
</defs>
</svg>
