<svg width="50" height="50" viewBox="0 0 50 50" fill="none" xmlns="http://www.w3.org/2000/svg">
<g clip-path="url(#clip0)">
<path d="M2.32655 9.75005C1.04205 9.75005 0 10.7916 0 12.0766V38.8235C0 40.1084 1.0422 41.1501 2.32655 41.1501H47.6735C48.958 41.1501 50 40.1086 50 38.8235V12.0766C50 10.7917 48.9578 9.75 47.6735 9.75H2.3265L2.32655 9.75005ZM16.3953 13.5298C19.2493 13.5298 21.8706 14.5227 23.9281 16.1813C22.197 17.7303 20.9058 19.7653 20.2687 22.072H21.2672C21.8552 20.1691 22.9233 18.4749 24.3312 17.1313C25.7391 18.4749 26.8072 20.1691 27.3953 22.072H28.4094C27.7635 19.7775 26.4705 17.7546 24.7406 16.2157C26.8021 14.5361 29.4336 13.5297 32.3 13.5297C38.9145 13.5297 44.2765 18.8923 44.2765 25.5079C44.2765 32.1234 38.9145 37.486 32.3 37.486C29.386 37.486 26.714 36.4459 24.6375 34.7157C26.495 33.0997 27.8644 30.9333 28.4906 28.4688H27.514C26.958 30.5373 25.8387 32.3771 24.3312 33.8157C22.8237 32.3771 21.706 30.5373 21.1499 28.4688H20.2202C20.8501 30.8976 22.2016 33.0337 24.0312 34.6345C21.9585 36.3433 19.297 37.3704 16.3952 37.3704C9.78075 37.3704 4.41875 32.0336 4.41875 25.4501C4.41875 18.8666 9.78075 13.5298 16.3953 13.5298ZM31.4015 21.9501C29.9625 21.9501 28.5625 23.2082 28.5625 25.5704C28.5625 27.1368 29.3187 28.1704 30.8062 28.1704C31.2268 28.1705 31.8969 27.9985 31.8969 27.9985L32.1187 26.6298C32.1187 26.6298 31.5072 26.9391 31.0875 26.9391C30.2032 26.9391 29.8484 26.2591 29.8484 25.5282C29.8484 24.0456 30.6092 23.2297 31.4562 23.2297C32.0914 23.2297 32.6015 23.5891 32.6015 23.5891L32.8047 22.2579C32.8047 22.2579 32.0495 21.9501 31.4015 21.9501H31.4015ZM43.5 22.0657L42.2484 22.0688L41.9797 23.7157C41.9797 23.7157 41.5092 23.0766 40.7734 23.0766C39.6294 23.0766 38.6765 24.4356 38.6765 25.9985C38.6765 27.0074 39.1837 27.9969 40.2234 27.9969C40.9713 27.9969 41.3859 27.4829 41.3859 27.4829L41.3312 27.9219H42.5469L43.5 22.0657ZM7.6531 22.0829L6.65625 27.9532H7.8578L8.6172 23.5267L8.7297 27.9532H9.58905L11.1922 23.5267L10.4812 27.9532H11.7578L12.7422 22.0829H10.7672L9.5375 25.6844L9.47345 22.0829H7.65315L7.6531 22.0829ZM20.2062 22.4641C20.1791 22.4914 19.4797 26.5245 19.4797 27.0157C19.4797 27.743 19.8873 28.0678 20.4609 28.0626C20.8719 28.0591 21.1902 27.9558 21.3375 27.9126C21.3529 27.9084 21.3828 27.9001 21.3828 27.9001L21.5375 26.8501C21.4534 26.8501 21.3295 26.886 21.2203 26.886C20.792 26.886 20.7446 26.6582 20.7718 26.4891L21.1172 24.347H21.7687L21.9265 23.186H21.3125L21.4375 22.4641H20.2062ZM34.7297 23.0548C33.891 23.0548 33.2484 23.3313 33.2484 23.3313L33.0703 24.4095C33.0703 24.4095 33.601 24.1891 34.4031 24.1891C34.8585 24.1891 35.1922 24.2412 35.1922 24.6204C35.1922 24.8507 35.1515 24.936 35.1515 24.936C35.1515 24.936 34.7914 24.9048 34.625 24.9048C33.5674 24.9048 32.4562 25.3683 32.4562 26.7626C32.4562 27.8612 33.1857 28.1126 33.6375 28.1126C34.5004 28.1126 34.8725 27.5393 34.8922 27.5376L34.8515 28.0157H35.9281L36.4094 24.5657C36.4095 23.1018 35.1627 23.0547 34.7297 23.0547V23.0548ZM14.5343 23.061C13.6926 23.061 13.0469 23.3376 13.0469 23.3376L12.8687 24.4157C12.8687 24.4157 13.4012 24.1954 14.2062 24.1954C14.6633 24.1954 14.9984 24.2477 14.9984 24.6266C14.9984 24.8568 14.9578 24.9423 14.9578 24.9423C14.9578 24.9423 14.5966 24.911 14.4297 24.911C13.368 24.911 12.2531 25.3738 12.2531 26.7673C12.2531 27.8653 12.984 28.1173 13.4375 28.1173C14.3035 28.1173 14.677 27.544 14.6969 27.5423L14.6562 28.0204H15.7375L16.2203 24.572C16.2203 23.1089 14.9689 23.061 14.5343 23.061V23.061ZM18.3531 23.061C17.4492 23.061 16.5312 23.4259 16.5312 24.672C16.5312 26.0839 18.0609 25.9412 18.0609 26.536C18.0609 26.933 17.634 26.9657 17.3047 26.9657C16.7347 26.9657 16.2221 26.7688 16.2203 26.7782L16.0562 27.8563C16.0857 27.8655 16.4031 28.0079 17.4281 28.0079C17.7033 28.0079 19.2765 28.0778 19.2765 26.4391C19.2765 24.9072 17.8203 25.2108 17.8203 24.5954C17.8203 24.289 18.0567 24.1923 18.4906 24.1923C18.6629 24.1923 19.3266 24.247 19.3266 24.247L19.4797 23.1579C19.4797 23.158 19.0514 23.061 18.3531 23.061H18.3531ZM24.0031 23.061C22.7471 23.0613 21.8172 24.4119 21.8172 25.9376C21.8172 27.6985 22.9823 28.1173 23.975 28.1173C24.8913 28.1173 25.2953 27.9126 25.2953 27.9126L25.514 26.711C25.514 26.711 24.817 27.0173 24.1875 27.0173C22.8462 27.0173 23.0812 26.0188 23.0812 26.0188H25.6203C25.6203 26.0188 25.7844 25.2119 25.7844 24.8829C25.7844 24.0619 25.3746 23.061 24.0031 23.061H24.0031ZM28.5516 23.1126C27.9857 23.1126 27.5656 23.8735 27.5656 23.8735L27.6781 23.1751H26.5031L25.7141 27.997H27.0125C27.3802 25.9379 27.4474 24.2659 28.325 24.572C28.4786 23.775 28.6276 23.4671 28.7953 23.1298C28.7953 23.1298 28.7165 23.1126 28.5515 23.1126H28.5516ZM39.0718 23.1126C38.5061 23.1126 38.0859 23.8735 38.0859 23.8735L38.1984 23.1751H37.0234L36.2343 27.997H37.5312C37.8991 25.9379 37.968 24.2659 38.8453 24.572C38.9992 23.775 39.1481 23.4671 39.3156 23.1298C39.3156 23.1298 39.2368 23.1126 39.0719 23.1126H39.0718ZM23.9968 24.1485C24.7102 24.1485 24.5797 24.9537 24.5797 25.0188H23.175C23.175 24.9357 23.3079 24.1485 23.9969 24.1485H23.9968ZM40.9703 24.2423C41.4243 24.2421 41.6578 24.5488 41.6578 25.2704C41.6578 25.9251 41.3276 26.8001 40.6437 26.8001C40.1898 26.8001 39.9765 26.4252 39.9765 25.8376C39.9765 24.8767 40.4161 24.2423 40.9703 24.2423H40.9703ZM34.7312 25.8829C34.9164 25.8831 34.9547 25.9011 34.9859 25.9095C34.9814 25.9087 34.9806 25.9096 34.9984 25.9126C35.0219 26.1273 34.8687 27.1345 34.1281 27.1345C33.7463 27.1345 33.6484 26.8308 33.6484 26.6516C33.6484 26.3022 33.8303 25.8829 34.7312 25.8829ZM14.5359 25.8876C14.7463 25.8878 14.7692 25.9113 14.8047 25.9173C14.8282 26.1319 14.6744 27.1376 13.9312 27.1376C13.5479 27.1376 13.4484 26.8354 13.4484 26.6563C13.4484 26.3071 13.6314 25.8876 14.5359 25.8876Z" fill="#2E186A"/>
</g>
<defs>
<clipPath id="clip0">
<rect width="50" height="50" fill="white"/>
</clipPath>
</defs>
</svg>
