<svg width="40" height="40" viewBox="0 0 40 40" fill="none" xmlns="http://www.w3.org/2000/svg">
<g clip-path="url(#clip0)">
<path d="M12.9377 20.1524C12.9377 20.9999 12.264 21.6449 11.4102 21.6449C10.7715 21.6449 10.299 21.2836 10.299 20.6036C10.299 19.7561 10.959 19.0761 11.8065 19.0761C12.4527 19.0761 12.939 19.4724 12.939 20.1524H12.9377ZM5.59024 16.7849H5.26399C5.16024 16.7849 5.05524 16.8549 5.04149 16.9724L4.74274 18.8274L5.31274 18.8061C6.07649 18.8061 6.66649 18.7024 6.80524 17.8199C6.96524 16.8886 6.37524 16.7849 5.59024 16.7849ZM25.3127 16.7849H25.0002C24.8752 16.7849 24.7915 16.8549 24.7777 16.9724L24.4865 18.8274L25.0415 18.8061C25.944 18.8061 26.569 18.5974 26.569 17.5561C26.5615 16.8199 25.9027 16.7849 25.3115 16.7849H25.3127ZM40.0002 7.77735V32.2224C39.9999 33.1064 39.6486 33.9542 39.0234 34.5793C38.3983 35.2044 37.5506 35.5558 36.6665 35.5561H3.33274C2.44868 35.5558 1.60092 35.2044 0.975792 34.5793C0.350664 33.9542 -0.000675784 33.1064 -0.00100708 32.2224V7.77735C-0.000675784 6.89329 0.350664 6.04553 0.975792 5.4204C1.60092 4.79527 2.44868 4.44393 3.33274 4.4436H36.6665C37.5506 4.44393 38.3983 4.79527 39.0234 5.4204C39.6486 6.04553 39.9999 6.89329 40.0002 7.77735ZM8.91024 17.1799C8.91024 15.7211 7.78524 15.2349 6.50024 15.2349H3.72274C3.63302 15.2355 3.54667 15.2691 3.48008 15.3293C3.41349 15.3894 3.37129 15.4719 3.36149 15.5611L2.22274 22.6511C2.20149 22.7899 2.30649 22.9286 2.44524 22.9286H3.76524C3.95274 22.9286 4.12649 22.7274 4.14774 22.5324L4.46024 20.6849C4.53024 20.1849 5.37649 20.3586 5.71024 20.3586C7.69649 20.3586 8.91149 19.1786 8.91149 17.1786L8.91024 17.1799ZM14.7577 17.7911H13.4377C13.174 17.7911 13.1602 18.1736 13.1465 18.3611C12.744 17.7711 12.1602 17.6661 11.5002 17.6661C9.79899 17.6661 8.50024 19.1586 8.50024 20.8049C8.50024 22.1586 9.34774 23.0411 10.7015 23.0411C11.3265 23.0411 12.104 22.7011 12.5415 22.2149C12.5011 22.3553 12.4776 22.5001 12.4715 22.6461C12.4715 22.8061 12.5415 22.9236 12.694 22.9236H13.889C14.0765 22.9236 14.2365 22.7224 14.2715 22.5274L14.9802 18.0624C15.0015 17.9299 14.8965 17.7911 14.7577 17.7911ZM17.5702 24.5899L21.994 18.1586C22.029 18.1236 22.029 18.0886 22.029 18.0411C22.029 17.9236 21.9252 17.7986 21.8065 17.7986H20.4727C20.4107 17.801 20.3501 17.818 20.2958 17.8482C20.2415 17.8784 20.1951 17.9209 20.1602 17.9724L18.3202 20.6811L17.5565 18.0774C17.5278 17.9982 17.476 17.9294 17.4078 17.8799C17.3396 17.8305 17.2582 17.8026 17.174 17.7999H15.8752C15.7565 17.7999 15.6527 17.9249 15.6527 18.0424C15.6527 18.1261 17.0065 21.9874 17.1252 22.3549C16.9377 22.6186 15.7015 24.3411 15.7015 24.5499C15.7015 24.6749 15.8052 24.7724 15.924 24.7724H17.2577C17.3201 24.7682 17.3807 24.7499 17.4349 24.7187C17.4891 24.6875 17.5354 24.6443 17.5702 24.5924V24.5899ZM28.6327 17.1799C28.6327 15.7211 27.5077 15.2349 26.2227 15.2349H23.4652C23.3729 15.2341 23.2834 15.2667 23.2131 15.3266C23.1429 15.3865 23.0966 15.4698 23.0827 15.5611L21.9577 22.6449C21.944 22.7836 22.0477 22.9224 22.1802 22.9224H23.604C23.7427 22.9224 23.8465 22.8186 23.8815 22.6999L24.194 20.6861C24.264 20.1861 25.1115 20.3599 25.444 20.3599C27.4165 20.3599 28.6315 19.1799 28.6315 17.1799H28.6327ZM34.479 17.7911H33.159C32.8952 17.7911 32.8815 18.1736 32.8602 18.3611C32.4777 17.7711 31.8877 17.6661 31.214 17.6661C29.5127 17.6661 28.214 19.1586 28.214 20.8049C28.214 22.1586 29.0615 23.0411 30.4152 23.0411C31.0615 23.0411 31.839 22.7011 32.2552 22.2149C32.234 22.3186 32.1852 22.5411 32.1852 22.6461C32.1852 22.8061 32.2552 22.9236 32.4077 22.9236H33.609C33.7965 22.9236 33.9565 22.7224 33.9915 22.5274L34.7002 18.0624C34.7215 17.9299 34.6165 17.7911 34.4777 17.7911H34.479ZM37.7777 15.4786C37.7777 15.3399 37.674 15.2361 37.5552 15.2361H36.2702C36.1665 15.2361 36.0615 15.3199 36.0477 15.4236L34.9227 22.6461L34.9027 22.6811C34.9027 22.8061 35.0065 22.9236 35.1452 22.9236H36.2915C36.4652 22.9236 36.639 22.7224 36.6527 22.5274L37.7777 15.4999V15.4786ZM31.5277 19.0761C30.6802 19.0761 30.0202 19.7499 30.0202 20.6036C30.0202 21.2774 30.5065 21.6449 31.1452 21.6449C31.979 21.6449 32.6527 21.0061 32.6527 20.1524C32.6602 19.4724 32.174 19.0761 31.5277 19.0761Z" fill="#2E186A"/>
</g>
<defs>
<clipPath id="clip0">
<rect width="40" height="40" fill="white"/>
</clipPath>
</defs>
</svg>
