<svg width="50" height="50" viewBox="0 0 50 50" fill="none" xmlns="http://www.w3.org/2000/svg">
<path d="M2 9.30005C0.89565 9.30005 0 10.1954 0 11.3V38.7C0 39.8046 0.8961 40.7 2 40.7H48C49.1044 40.7 50 39.8046 50 38.7V11.3C50 10.1955 49.1039 9.30005 48 9.30005H2ZM29.8625 18.6578C31.0794 18.6578 32.0546 18.9266 32.6766 19.1766L32.2516 21.85L31.9703 21.7078C31.391 21.4579 30.6468 21.2173 29.6203 21.2344C28.3915 21.2344 27.8235 21.7825 27.8235 22.2954C27.8163 22.8732 28.4872 23.2543 29.5844 23.825C31.3952 24.7055 32.2322 25.7731 32.2203 27.1766C32.1959 29.7374 30.0541 31.3922 26.7547 31.3922C25.347 31.3767 23.9909 31.0787 23.2578 30.7344L23.6985 27.9719L24.1031 28.1688C25.134 28.6294 25.8015 28.8157 27.0578 28.8157C27.96 28.8157 28.9282 28.4379 28.9359 27.611C28.9418 27.071 28.5312 26.686 27.3094 26.0813C26.1188 25.4911 24.5404 24.5024 24.5579 22.7297C24.5765 20.3317 26.761 18.6578 29.8625 18.6578ZM4.42185 19.05H9.48905C10.1714 19.0758 10.7223 19.2955 10.9125 20.036L12.0047 25.6735C12.0048 25.674 12.0045 25.676 12.0047 25.6766L12.3328 27.3657L15.4094 19.05H18.7375L13.7906 31.2219L10.4656 31.225L7.81875 21.4031C9.39365 22.2375 10.7345 23.2028 11.511 24.5313C11.3108 24.1109 11.047 23.6364 10.7094 23.1688C10.3163 22.6242 9.46735 21.921 9.1125 21.6219C7.876 20.5795 6.19675 19.7377 4.3828 19.2922L4.42185 19.05ZM20.0609 19.0641H23.3156L21.2796 31.2172H18.025L20.0609 19.0641ZM38.4438 19.0641H40.9094L43.4907 31.2172H40.5312C40.5312 31.2172 40.2377 29.821 40.1422 29.3953C39.6771 29.3953 36.4239 29.3907 36.0578 29.3907C35.934 29.7197 35.386 31.2172 35.386 31.2172H32.0375L36.7734 20.0735C37.1087 19.2816 37.6803 19.0641 38.4438 19.0641ZM38.686 22.3328C38.5258 22.7849 38.247 23.5149 38.2656 23.4828C38.2656 23.4828 37.2637 26.1548 37.0016 26.8485L39.6343 26.8469C39.5075 26.2443 38.9 23.3704 38.9 23.3704L38.686 22.3329V22.3328Z" fill="#2E186A"/>
</svg>
